<svg width="102" height="102" viewBox="0 0 102 102" fill="none" xmlns="http://www.w3.org/2000/svg">
<g clip-path="url(#clip0_5008_50447)">
<path d="M33.9932 56.4401C46.3912 56.4401 56.4418 46.3895 56.4418 33.9915C56.4418 21.5935 46.3912 11.543 33.9932 11.543C21.5952 11.543 11.5447 21.5935 11.5447 33.9915C11.5447 46.3895 21.5952 56.4401 33.9932 56.4401Z" fill="url(#paint0_linear_5008_50447)"/>
<path d="M68.0062 90.4518C80.4042 90.4518 90.4547 80.4012 90.4547 68.0032C90.4547 55.6052 80.4042 45.5547 68.0062 45.5547C55.6082 45.5547 45.5576 55.6052 45.5576 68.0032C45.5576 80.4012 55.6082 90.4518 68.0062 90.4518Z" fill="url(#paint1_linear_5008_50447)"/>
<path d="M50.9997 89.0914C72.0387 89.0914 89.0942 72.0359 89.0942 50.9969C89.0942 29.9578 72.0387 12.9023 50.9997 12.9023C29.9607 12.9023 12.9052 29.9578 12.9052 50.9969C12.9052 72.0359 29.9607 89.0914 50.9997 89.0914Z" fill="url(#paint2_linear_5008_50447)"/>
<g opacity="0.1" filter="url(#filter0_f_5008_50447)">
<path d="M58.6812 88.4085C60.5229 89.2465 62.4699 89.8301 64.4689 90.1432C70.4152 88.0882 75.8167 84.7087 80.2654 80.26C84.7141 75.8113 88.0936 70.4097 90.1486 64.4634C89.8355 62.4645 89.2519 60.5174 88.414 58.6758C86.9196 66.0013 83.3042 72.7256 78.0176 78.0122C72.7311 83.2988 66.0067 86.9142 58.6812 88.4085V88.4085Z" fill="black"/>
</g>
<g opacity="0.1" filter="url(#filter1_f_5008_50447)">
<path d="M11.8508 37.5313C12.1636 39.5304 12.7471 41.4775 13.5854 43.319C15.0798 35.9935 18.6952 29.2691 23.9818 23.9826C29.2683 18.696 35.9927 15.0806 43.3182 13.5862C41.4766 12.7483 39.5295 12.1647 37.5306 11.8516C31.5842 13.9066 26.1827 17.2861 21.734 21.7348C17.2853 26.1835 13.9058 31.585 11.8508 37.5313V37.5313Z" fill="black"/>
</g>
<g opacity="0.1" filter="url(#filter2_f_5008_50447)">
<path d="M58.6812 88.4085C59.5321 88.8055 60.4073 89.1482 61.3016 89.4344C68.0459 87.6218 74.1952 84.0681 79.1329 79.1294C84.0706 74.1908 87.6231 68.0408 89.4344 61.2961C89.1481 60.4019 88.8055 59.5267 88.4085 58.6758C86.9146 66.0005 83.3 72.7244 78.0144 78.0109C72.7289 83.2974 66.0057 86.9132 58.6812 88.4085V88.4085Z" fill="black"/>
</g>
<g opacity="0.1" filter="url(#filter3_f_5008_50447)">
<path d="M12.5651 40.6968C12.8499 41.5908 13.1907 42.466 13.5855 43.3172C15.0798 35.9917 18.6952 29.2673 23.9818 23.9808C29.2684 18.6942 35.9927 15.0788 43.3182 13.5844C42.4673 13.1875 41.5921 12.8448 40.6979 12.5586C33.9535 14.3711 27.8043 17.9249 22.8666 22.8635C17.9289 27.8022 14.3763 33.9522 12.5651 40.6968V40.6968Z" fill="black"/>
</g>
<path d="M50.9997 89.0914C72.0387 89.0914 89.0942 72.0359 89.0942 50.9969C89.0942 29.9578 72.0387 12.9023 50.9997 12.9023C29.9607 12.9023 12.9052 29.9578 12.9052 50.9969C12.9052 72.0359 29.9607 89.0914 50.9997 89.0914Z" fill="url(#paint3_linear_5008_50447)"/>
<path fill-rule="evenodd" clip-rule="evenodd" d="M41.3224 50.2914C39.8632 49.3307 38.646 48.0456 37.766 46.5363C36.9132 44.9437 36.4911 43.1559 36.5415 41.3501C36.4767 39.0587 37.2585 36.8239 38.7374 35.0726C40.2763 33.3131 42.2541 31.9931 44.4693 31.2468C46.876 30.3967 49.4119 29.97 51.9643 29.9856C53.6348 29.9701 55.3035 30.098 56.952 30.3679C58.1311 30.5508 59.2891 30.8503 60.4091 31.2618C61.4378 31.6099 62.3665 32.2029 63.1152 32.9897C63.6677 33.6366 63.9652 34.4628 63.9519 35.3134C63.9718 35.7553 63.9045 36.1967 63.7537 36.6125C63.6029 37.0283 63.3716 37.4102 63.073 37.7365C62.7904 38.0375 62.4473 38.2752 62.0663 38.4339C61.6852 38.5927 61.2748 38.6689 60.8621 38.6576C60.2944 38.6532 59.7342 38.528 59.2186 38.2902C57.9503 37.7223 56.6437 37.2441 55.3085 36.859C54.079 36.5343 52.8114 36.3769 51.5399 36.391C49.884 36.3294 48.2455 36.7475 46.8216 37.595C46.2199 37.9603 45.7274 38.4806 45.3957 39.1015C45.0639 39.7224 44.9051 40.421 44.9359 41.1242C44.9272 42.0463 45.2781 42.9354 45.9141 43.6031C46.6702 44.3874 47.5639 45.0261 48.5508 45.4874C49.6565 46.0316 51.305 46.7572 53.4963 47.6642C53.7393 47.7414 53.9762 47.8364 54.2051 47.9486C56.344 48.7941 58.3946 49.8477 60.3275 51.0941C61.8539 52.0893 63.1409 53.4103 64.0961 54.962C65.0363 56.5927 65.5072 58.4517 65.4566 60.3334C65.5355 62.6376 64.8747 64.9065 63.5709 66.8081C62.2444 68.6128 60.407 69.9782 58.2962 70.7277C55.7566 71.6351 53.0729 72.0722 50.3766 72.0175C46.6707 72.1479 42.9822 71.4508 39.5796 69.9767C38.7087 69.5894 37.9453 68.9959 37.3551 68.2475C36.8658 67.5624 36.6123 66.7368 36.6327 65.8952C36.6088 65.4509 36.6816 65.0068 36.846 64.5934C37.0104 64.18 37.2626 63.8072 37.585 63.5007C38.2607 62.9098 39.1372 62.6006 40.034 62.6367C41.0313 62.6516 42.0107 62.9039 42.8911 63.3728C43.9858 63.917 44.8502 64.3283 45.4842 64.6068C46.2073 64.9096 46.9564 65.1464 47.7223 65.3142C48.6666 65.522 49.6315 65.6219 50.5984 65.6122C52.308 65.7335 54.0091 65.2795 55.431 64.3224C55.9638 63.9064 56.3898 63.3694 56.6738 62.7559C56.9577 62.1424 57.0913 61.47 57.0636 60.7946C57.0668 59.8341 56.7016 58.9089 56.0432 58.2096C55.1746 57.3174 54.1589 56.5815 53.0405 56.0341C51.7172 55.3357 49.8578 54.4859 47.4624 53.4845C45.3162 52.629 43.2611 51.5607 41.3278 50.2955" fill="white"/>
</g>
<defs>
<filter id="filter0_f_5008_50447" x="53.2391" y="53.2337" width="42.3516" height="42.3529" filterUnits="userSpaceOnUse" color-interpolation-filters="sRGB">
<feFlood flood-opacity="0" result="BackgroundImageFix"/>
<feBlend mode="normal" in="SourceGraphic" in2="BackgroundImageFix" result="shape"/>
<feGaussianBlur stdDeviation="2.72104" result="effect1_foregroundBlur_5008_50447"/>
</filter>
<filter id="filter1_f_5008_50447" x="6.4087" y="6.40949" width="42.3516" height="42.3529" filterUnits="userSpaceOnUse" color-interpolation-filters="sRGB">
<feFlood flood-opacity="0" result="BackgroundImageFix"/>
<feBlend mode="normal" in="SourceGraphic" in2="BackgroundImageFix" result="shape"/>
<feGaussianBlur stdDeviation="2.72104" result="effect1_foregroundBlur_5008_50447"/>
</filter>
<filter id="filter2_f_5008_50447" x="53.2391" y="53.2337" width="41.6373" height="41.642" filterUnits="userSpaceOnUse" color-interpolation-filters="sRGB">
<feFlood flood-opacity="0" result="BackgroundImageFix"/>
<feBlend mode="normal" in="SourceGraphic" in2="BackgroundImageFix" result="shape"/>
<feGaussianBlur stdDeviation="2.72104" result="effect1_foregroundBlur_5008_50447"/>
</filter>
<filter id="filter3_f_5008_50447" x="7.12299" y="7.11652" width="41.6373" height="41.642" filterUnits="userSpaceOnUse" color-interpolation-filters="sRGB">
<feFlood flood-opacity="0" result="BackgroundImageFix"/>
<feBlend mode="normal" in="SourceGraphic" in2="BackgroundImageFix" result="shape"/>
<feGaussianBlur stdDeviation="2.72104" result="effect1_foregroundBlur_5008_50447"/>
</filter>
<linearGradient id="paint0_linear_5008_50447" x1="30.4804" y1="11.8164" x2="37.5061" y2="56.1666" gradientUnits="userSpaceOnUse">
<stop offset="0.012" stop-color="#00B7F0"/>
<stop offset="0.339" stop-color="#009DE5"/>
<stop offset="0.755" stop-color="#0082D9"/>
<stop offset="1" stop-color="#0078D4"/>
</linearGradient>
<linearGradient id="paint1_linear_5008_50447" x1="48.5616" y1="79.2289" x2="87.4507" y2="56.7776" gradientUnits="userSpaceOnUse">
<stop stop-color="#0078D4"/>
<stop offset="0.37" stop-color="#007AD5"/>
<stop offset="0.573" stop-color="#0082D9"/>
<stop offset="0.735" stop-color="#0090DF"/>
<stop offset="0.875" stop-color="#00A3E7"/>
<stop offset="1" stop-color="#00BCF2"/>
</linearGradient>
<linearGradient id="paint2_linear_5008_50447" x1="36.098" y1="25.1851" x2="74.1979" y2="91.1784" gradientUnits="userSpaceOnUse">
<stop stop-color="#00B7F0"/>
<stop offset="1" stop-color="#007CC1"/>
</linearGradient>
<linearGradient id="paint3_linear_5008_50447" x1="47.6787" y1="88.9485" x2="54.3208" y2="13.0452" gradientUnits="userSpaceOnUse">
<stop stop-color="#0078D4"/>
<stop offset="1" stop-color="#00BCF2"/>
</linearGradient>
<clipPath id="clip0_5008_50447">
<rect width="87.0732" height="87.0732" fill="white" transform="translate(7.46313 7.46094)"/>
</clipPath>
</defs>
</svg>
